<?xml version="1.0" encoding="UTF-8"?>
<svg xmlns="http://www.w3.org/2000/svg" xmlns:xlink="http://www.w3.org/1999/xlink" width="375pt" height="374.999991pt" viewBox="0 0 375 374.999991" version="1.2">
<defs>
<clipPath id="clip1">
  <path d="M 1 0 L 374 0 L 374 367.5 L 1 367.5 Z M 1 0 "/>
</clipPath>
</defs>
<g id="surface1">
<path style=" stroke:none;fill-rule:nonzero;fill:rgb(0%,0%,0%);fill-opacity:1;" d="M 368.785156 254.042969 L 189.492188 5.691406 C 189.113281 5.121094 188.542969 4.933594 187.972656 4.933594 L 138.835938 3.984375 C 138.644531 3.984375 138.457031 3.984375 138.265625 4.175781 C 137.886719 4.363281 137.695312 4.363281 137.695312 4.554688 C 137.507812 4.742188 137.316406 4.933594 137.316406 5.121094 L 137.128906 5.3125 L 5.269531 317.980469 C 5.078125 318.550781 5.078125 319.308594 5.457031 319.878906 L 36.761719 363.136719 C 36.953125 363.324219 37.140625 363.324219 37.140625 363.515625 C 37.332031 363.515625 37.332031 363.515625 37.519531 363.707031 L 37.902344 363.707031 L 37.902344 365.601562 L 38.089844 363.707031 L 183.042969 335.816406 L 199.925781 328.605469 L 40.9375 358.960938 L 144.335938 97.140625 L 172.417969 136.035156 L 115.121094 272.066406 L 96.335938 313.429688 C 95.957031 314.1875 96.148438 314.945312 96.527344 315.515625 C 96.90625 316.085938 97.664062 316.273438 98.421875 316.273438 L 363.660156 258.027344 L 362.710938 259.925781 L 363.28125 259.734375 L 368.214844 257.648438 L 369.164062 255.5625 L 369.164062 254.992188 C 369.164062 254.800781 369.164062 254.800781 368.972656 254.613281 Z M 145.476562 92.207031 C 145.097656 91.636719 144.527344 91.449219 143.957031 91.449219 C 143.007812 91.636719 142.441406 92.015625 142.25 92.585938 L 37.519531 357.632812 L 9.253906 318.550781 L 9.632812 317.601562 L 139.40625 9.867188 L 294.789062 225.015625 L 249.445312 236.019531 Z M 175.074219 139.636719 L 245.273438 236.96875 L 121.378906 266.945312 Z M 101.269531 311.53125 L 119.484375 271.5 L 120.433594 271.308594 L 298.207031 228.242188 C 298.773438 228.050781 299.34375 227.671875 299.535156 227.101562 C 299.722656 226.535156 299.722656 225.773438 299.34375 225.394531 L 142.628906 7.96875 L 186.835938 8.917969 L 187.59375 9.484375 L 364.039062 253.855469 Z M 101.269531 311.53125 "/>
<path style=" stroke:none;fill-rule:nonzero;fill:rgb(100%,100%,100%);fill-opacity:1;" d="M 294.789062 225.015625 L 139.40625 9.867188 L 9.632812 317.414062 L 9.253906 318.359375 L 37.519531 357.445312 L 142.25 92.585938 C 142.441406 92.015625 143.007812 91.449219 143.957031 91.449219 C 144.527344 91.449219 145.097656 91.828125 145.476562 92.207031 L 249.257812 236.019531 Z M 143.199219 87.464844 C 141.113281 87.652344 139.214844 89.171875 138.457031 91.070312 L 36.382812 349.285156 L 13.804688 317.980469 L 140.164062 17.835938 L 287.960938 222.550781 L 250.964844 231.464844 L 148.699219 89.742188 C 147.5625 88.03125 145.476562 87.085938 143.199219 87.464844 Z M 143.199219 87.464844 "/>
<g clip-path="url(#clip1)" clip-rule="nonzero">
<path style=" stroke:none;fill-rule:nonzero;fill:rgb(100%,100%,100%);fill-opacity:1;" d="M 373.148438 255.371094 L 373.148438 254.234375 C 373.148438 253.855469 372.957031 253.472656 372.769531 253.09375 L 372.578125 252.714844 C 372.386719 252.527344 372.386719 252.144531 372.199219 252.144531 L 192.71875 3.414062 C 191.578125 1.898438 189.871094 0.949219 187.972656 0.949219 L 138.835938 0 L 138.644531 0 C 138.078125 0 137.507812 0.191406 136.75 0.378906 L 136.367188 0.570312 C 135.800781 0.757812 135.421875 1.136719 135.039062 1.519531 L 134.660156 1.707031 C 134.28125 2.085938 133.902344 2.65625 133.710938 3.035156 L 1.472656 316.464844 C 0.714844 318.359375 0.902344 320.636719 2.042969 322.15625 L 33.347656 365.222656 C 33.535156 365.601562 33.917969 365.792969 34.484375 366.363281 C 34.863281 366.550781 35.054688 366.742188 35.433594 366.929688 L 35.625 367.121094 C 36.003906 367.308594 36.382812 367.5 37.332031 367.5 L 38.660156 367.5 L 183.988281 339.609375 L 344.121094 309.0625 C 344.5 309.0625 344.878906 308.875 345.257812 308.683594 C 346.585938 308.117188 347.535156 307.167969 348.292969 305.839844 L 371.058594 260.496094 L 373.714844 254.992188 Z M 344.6875 304.132812 C 344.5 304.511719 344.117188 304.890625 343.738281 305.078125 C 343.550781 305.078125 343.550781 305.269531 343.359375 305.269531 L 201.824219 332.402344 L 218.710938 325.191406 L 340.703125 301.664062 L 341.652344 301.476562 L 359.867188 265.238281 L 365.367188 262.960938 Z M 93.300781 317.980469 C 94.628906 319.6875 96.90625 320.449219 99.183594 320.070312 L 356.261719 263.71875 L 355.882812 264.480469 L 338.996094 298.058594 L 236.164062 317.792969 L 47.386719 353.839844 L 145.476562 105.488281 L 167.863281 136.601562 L 111.324219 270.550781 L 92.542969 311.71875 C 91.59375 313.808594 91.972656 316.085938 93.300781 317.980469 Z M 369.164062 255.5625 L 368.214844 257.648438 L 363.28125 259.734375 L 362.710938 259.925781 L 363.660156 258.027344 L 98.421875 316.085938 C 97.664062 316.273438 96.90625 315.894531 96.527344 315.324219 C 96.148438 314.757812 95.957031 313.996094 96.335938 313.238281 L 115.121094 271.878906 L 172.417969 135.84375 L 144.527344 97.328125 L 40.9375 358.960938 L 199.925781 328.605469 L 183.042969 335.816406 L 38.089844 363.515625 L 37.902344 365.414062 L 37.902344 363.515625 L 37.519531 363.515625 C 37.332031 363.515625 37.332031 363.515625 37.140625 363.324219 C 36.953125 363.324219 36.953125 363.136719 36.761719 362.945312 L 5.457031 319.878906 C 5.078125 319.308594 4.886719 318.550781 5.269531 317.980469 L 137.128906 5.3125 L 137.316406 5.121094 C 137.316406 4.933594 137.507812 4.742188 137.695312 4.554688 C 137.886719 4.363281 138.078125 4.363281 138.265625 4.175781 C 138.457031 4.175781 138.644531 3.984375 138.835938 3.984375 L 187.972656 4.933594 C 188.542969 4.933594 189.113281 5.3125 189.492188 5.691406 L 368.785156 254.042969 L 368.972656 254.421875 C 368.972656 254.613281 369.164062 254.800781 369.164062 254.800781 Z M 372.007812 255.941406 L 371.058594 255.75 L 372.386719 255.75 Z M 372.007812 255.941406 "/>
</g>
<path style=" stroke:none;fill-rule:nonzero;fill:rgb(100%,100%,100%);fill-opacity:1;" d="M 175.074219 139.636719 L 121.378906 266.945312 L 245.273438 236.96875 Z M 176.023438 147.796875 L 238.632812 234.5 L 128.210938 261.253906 Z M 176.023438 147.796875 "/>
<path style=" stroke:none;fill-rule:nonzero;fill:rgb(100%,100%,100%);fill-opacity:1;" d="M 186.835938 8.726562 L 142.628906 7.96875 L 299.34375 225.207031 C 299.722656 225.773438 299.722656 226.34375 299.535156 226.914062 C 299.34375 227.480469 298.773438 228.050781 298.207031 228.050781 L 120.621094 271.117188 L 119.671875 271.308594 L 101.460938 311.339844 L 364.039062 253.855469 L 187.59375 9.484375 Z M 108.289062 305.839844 L 122.328125 275.101562 L 122.519531 274.722656 L 299.34375 231.84375 C 301.242188 231.277344 302.757812 229.949219 303.519531 228.242188 C 304.277344 226.34375 303.898438 224.257812 302.757812 222.738281 L 150.597656 12.140625 L 184.75 12.902344 L 357.019531 251.578125 Z M 108.289062 305.839844 "/>
<path style=" stroke:none;fill-rule:nonzero;fill:rgb(0%,0%,0%);fill-opacity:1;" d="M 341.84375 301.476562 L 340.703125 301.664062 L 218.710938 325 L 201.824219 332.210938 L 343.359375 305.078125 C 343.550781 305.078125 343.550781 305.078125 343.738281 304.890625 C 344.117188 304.699219 344.5 304.320312 344.6875 303.941406 L 365.367188 262.960938 L 359.867188 265.238281 Z M 341.84375 301.476562 "/>
</g>
</svg>
